# xmcd
#
# Track frame offsets:
#	150
#	11001
#	22855
#	36913
#	48630
#	59630
#	71014
#	84708
#	96842
#	108316
#
# Disc length: 1599 seconds
#
# Revision: 0
# Processed by: cddbd v1.5.1PL0 Copyright (c) Steve Scherf et al.
# Submitted via: dBpowerAMP V4.0
#
DISCID=84063d0a
DTITLE=Conway Twitty - Rhythm And Blues
DYEAR=1963
DGENRE=Country
TTITLE0=It's Too Late
TTITLE1=I Almost Lost My Mind
TTITLE2=I Got a Woman
TTITLE3=My Babe
TTITLE4=Let The Good Times Roll
TTITLE5=Fever
TTITLE6=Boss Man
TTITLE7=Don't Cry No More
TTITLE8=Looking Back
TTITLE9=Pledging My Love
EXTD=
EXTT0=
EXTT1=
EXTT2=
EXTT3=
EXTT4=
EXTT5=
EXTT6=
EXTT7=
EXTT8=
EXTT9=
PLAYORDER=
